# File created by Blade
# Date/Time:  Fri Jan 16 19:49:56 2015
# Frame Rate: 120.000 fps
#------------------------------------------------------
:FULLY-SPECIFIED
:DEGREES
268
root 20.053370 35.606821 -15.682976 -147.045802 3.576801 -177.941302
Spine 37.247417 2.942003 -5.078899
Head 4.776658 2.463415 0.791107
LeftShoulder -21.298944 10.525534 8.068830
LeftArm -56.286558 17.190287 -105.106665
LeftForeArm 9.963755 -0.000000 0.729656
LeftHand -2.345965 0.000000 -44.825425
LeftHandThumb1 -26.253704 0.000000 33.147579
RightShoulder -28.639702 -45.557549 3.498520
RightArm -17.220805 -32.253673 89.427788
RightForeArm -31.313526 -0.000000 9.757573
RightHand 4.602685 0.000000 47.232278
RightHandThumb1 -24.326973 -0.000000 -32.862282
LeftUpLeg -30.966069 7.297541 3.352514
LeftLeg -9.184092 -0.000000 0.000000
LeftFoot -9.014950 30.989027 -10.963076
LeftToeBase 25.439793 -0.000000 -0.000000
RightUpLeg -32.470731 -2.381701 -2.528558
RightLeg -6.390978 -0.000000 0.000000
RightFoot -8.145484 -10.437037 20.397111
RightToeBase 25.999224 -0.000000 -0.000000
269
root 20.063955 35.585131 -15.550575 -146.366441 3.675686 -177.874554
Spine 37.791810 3.061120 -5.170015
Head 4.080691 2.415686 0.703977
LeftShoulder -21.276531 10.524368 8.129730
LeftArm -56.589217 16.928418 -104.992912
LeftForeArm 10.271974 -0.000000 0.734262
LeftHand -2.265315 -0.000000 -44.793006
LeftHandThumb1 -26.253704 0.000000 33.147579
RightShoulder -28.674618 -45.753909 3.393731
RightArm -17.312652 -32.049912 89.299001
RightForeArm -31.431135 -0.000000 9.732744
RightHand 4.621656 -0.000000 47.327433
RightHandThumb1 -24.326973 -0.000000 -32.862282
LeftUpLeg -31.776050 7.335648 3.391203
LeftLeg -9.275762 -0.000000 0.000000
LeftFoot -8.893837 31.113039 -10.805727
LeftToeBase 25.564530 -0.000000 -0.000000
RightUpLeg -33.323747 -2.198943 -2.639693
RightLeg -6.425404 -0.000000 0.000000
RightFoot -7.994662 -10.094076 20.412040
RightToeBase 26.156453 -0.000000 -0.000000
270
root 20.075642 35.561464 -15.416609 -145.653661 3.799003 -177.814113
Spine 38.268934 3.179781 -5.361807
Head 3.426942 2.390762 0.686336
LeftShoulder -21.338547 10.739172 8.214585
LeftArm -56.624564 16.698232 -104.832103
LeftForeArm 10.773621 -0.000000 0.655429
LeftHand -2.293172 -0.000000 -44.708757
LeftHandThumb1 -26.253704 0.000000 33.147579
RightShoulder -28.604580 -45.915135 3.247216
RightArm -17.452302 -31.992632 89.220222
RightForeArm -31.366533 -0.000000 9.683761
RightHand 4.574104 -0.000000 47.467440
RightHandThumb1 -24.326973 -0.000000 -32.862282
LeftUpLeg -32.639292 7.414495 3.386222
LeftLeg -9.338022 -0.000000 0.000000
LeftFoot -8.841807 31.256922 -10.680926
LeftToeBase 25.818286 -0.000000 -0.000000
RightUpLeg -34.209535 -1.940639 -2.819086
RightLeg -6.474751 -0.000000 0.000000
RightFoot -7.907648 -9.830257 20.570759
RightToeBase 26.357380 -0.000000 -0.000000
271
root 20.087089 35.539452 -15.286823 -144.944070 3.906165 -177.775280
Spine 38.752907 3.378072 -5.482902
Head 2.770247 2.287297 0.709096
LeftShoulder -21.254538 10.984956 8.271720
LeftArm -56.625785 16.560396 -104.750894
LeftForeArm 11.103357 0.000000 0.597984
LeftHand -2.281311 -0.000000 -44.746973
LeftHandThumb1 -26.253704 0.000000 33.147579
RightShoulder -28.675238 -46.038980 3.213826
RightArm -17.649457 -31.886808 89.188828
RightForeArm -31.450109 -0.000000 9.671790
RightHand 4.538949 -0.000000 47.585025
RightHandThumb1 -24.326973 -0.000000 -32.862282
LeftUpLeg -33.501670 7.522814 3.334332
LeftLeg -9.394054 -0.000000 0.000000
LeftFoot -8.683223 31.302454 -10.465082
LeftToeBase 25.892483 -0.000000 -0.000000
RightUpLeg -35.099677 -1.808361 -2.932355
RightLeg -6.491508 -0.000000 0.000000
RightFoot -7.795617 -9.465588 20.740318
RightToeBase 26.358362 -0.000000 -0.000000
272
root 20.097932 35.513930 -15.159872 -144.261380 3.936640 -177.758994
Spine 39.263983 3.431053 -5.589550
Head 2.114273 2.232016 0.662343
LeftShoulder -21.219009 11.142333 8.340603
LeftArm -56.737129 16.461071 -104.807856
LeftForeArm 11.334363 -0.000000 0.517718
LeftHand -2.273223 0.000000 -44.671894
LeftHandThumb1 -26.253704 0.000000 33.147579
RightShoulder -28.735985 -46.263798 3.150427
RightArm -17.688780 -31.844436 89.108846
RightForeArm -31.463081 -0.000000 9.594301
RightHand 4.578053 0.000000 47.652619
RightHandThumb1 -24.326973 -0.000000 -32.862282
LeftUpLeg -34.369271 7.583183 3.270513
LeftLeg -9.433484 -0.000000 0.000000
LeftFoot -8.653208 31.381164 -10.409576
LeftToeBase 26.053513 -0.000000 -0.000000
RightUpLeg -35.900361 -1.766364 -3.006440
RightLeg -6.605414 -0.000000 0.000000
RightFoot -7.663425 -9.142866 20.949979
RightToeBase 26.268235 -0.000000 -0.000000
273
root 20.111994 35.487082 -15.035374 -143.576471 3.967654 -177.763084
Spine 39.758511 3.457641 -5.745650
Head 1.471841 2.208248 0.635454
LeftShoulder -21.219130 11.402699 8.344282
LeftArm -56.707443 16.377263 -104.756269
LeftForeArm 11.677581 -0.000000 0.412647
LeftHand -2.202788 -0.000000 -44.672714
LeftHandThumb1 -26.253704 0.000000 33.147579
RightShoulder -28.670568 -46.371288 2.980918
RightArm -17.903207 -31.784797 89.131700
RightForeArm -31.516731 0.000000 9.518702
RightHand 4.663192 -0.000000 47.694919
RightHandThumb1 -24.326973 -0.000000 -32.862282
LeftUpLeg -35.237831 7.646391 3.192162
LeftLeg -9.467453 -0.000000 0.000000
LeftFoot -8.536859 31.413813 -10.238838
LeftToeBase 26.184269 -0.000000 -0.000000
RightUpLeg -36.727453 -1.722388 -3.096418
RightLeg -6.660415 -0.000000 0.000000
RightFoot -7.681649 -8.843195 21.117537
RightToeBase 26.398452 -0.000000 -0.000000
274
root 20.124395 35.462925 -14.912157 -142.880484 3.952121 -177.767320
Spine 40.244494 3.376278 -5.886573
Head 0.836583 2.250186 0.525383
LeftShoulder -21.273895 11.661978 8.293530
LeftArm -56.694458 16.313464 -104.741839
LeftForeArm 11.898281 -0.000000 0.359040
LeftHand -2.218868 -0.000000 -44.631006
LeftHandThumb1 -26.253704 0.000000 33.147579
RightShoulder -28.380564 -46.371888 2.654768
RightArm -18.308661 -31.502595 89.201751
RightForeArm -31.556865 -0.000000 9.547105
RightHand 4.618497 -0.000000 47.723781
RightHandThumb1 -24.326973 -0.000000 -32.862282
LeftUpLeg -36.121913 7.689001 3.114362
LeftLeg -9.513159 -0.000000 0.000000
LeftFoot -8.378669 31.451886 -10.034966
LeftToeBase 26.307761 -0.000000 -0.000000
RightUpLeg -37.542491 -1.698678 -3.145491
RightLeg -6.745781 -0.000000 0.000000
RightFoot -7.774376 -8.733241 21.185632
RightToeBase 26.745436 -0.000000 -0.000000
275
root 20.137058 35.440251 -14.791219 -142.203168 3.942547 -177.814508
Spine 40.778104 3.361998 -6.032958
Head 0.133500 2.192989 0.501596
LeftShoulder -21.279815 11.899804 8.292010
LeftArm -56.668344 16.312086 -104.738946
LeftForeArm 12.073152 -0.000000 0.326412
LeftHand -2.219049 -0.000000 -44.635618
LeftHandThumb1 -26.253704 0.000000 33.147579
RightShoulder -28.400890 -46.536923 2.579730
RightArm -18.388002 -31.435726 89.163909
RightForeArm -31.469592 0.000000 9.467560
RightHand 4.620218 0.000000 47.743583
RightHandThumb1 -24.326973 -0.000000 -32.862282
LeftUpLeg -37.002667 7.761209 2.944143
LeftLeg -9.558280 -0.000000 0.000000
LeftFoot -8.172232 31.462888 -9.870075
LeftToeBase 26.451990 -0.000000 -0.000000
RightUpLeg -38.360793 -1.775147 -3.159164
RightLeg -6.809937 -0.000000 0.000000
RightFoot -7.801635 -8.545270 21.261726
RightToeBase 26.976585 -0.000000 -0.000000
276
root 20.154511 35.418643 -14.673650 -141.519217 3.864130 -177.881315
Spine 41.293924 3.280073 -6.095292
Head -0.519196 2.088382 0.342334
LeftShoulder -21.150254 11.921314 8.229772
LeftArm -56.891364 16.246082 -104.775938
LeftForeArm 12.192611 -0.000000 0.343002
LeftHand -2.189672 -0.000000 -44.697812
LeftHandThumb1 -26.253704 0.000000 33.147579
RightShoulder -28.574136 -46.964275 2.640667
RightArm -18.111937 -31.270003 89.022598
RightForeArm -31.482791 -0.000000 9.331039
RightHand 4.583008 -0.000000 47.688936
RightHandThumb1 -24.326973 -0.000000 -32.862282
LeftUpLeg -37.878215 7.731448 2.853186
LeftLeg -9.604789 -0.000000 0.000000
LeftFoot -7.957245 31.443767 -9.747659
LeftToeBase 26.448740 -0.000000 -0.000000
RightUpLeg -39.154288 -1.886380 -3.140331
RightLeg -6.932469 -0.000000 0.000000
RightFoot -7.781861 -8.482396 21.254701
RightToeBase 26.916071 -0.000000 -0.000000
